<svg xmlns:xlink="http://www.w3.org/1999/xlink" xmlns="http://www.w3.org/2000/svg" width="48" height="48" viewBox="0 0 48 48" fill="none"><path d="M23.9639 42.9541C23.9639 42.9541 6.2411 31.8729 4.73962 23.941C3.23815 16.0091 8.6901 5.92524 23.9639 14.72C39.2378 5.92524 44.6275 16.0728 43.2396 23.9409C41.8517 31.809 23.9639 42.9541 23.9639 42.9541Z" fill="#EF3837" stroke="#333333" stroke-width="2.77712px"></path><path d="M11.3435 15.0014C10.2344 14.1305 8.92609 14.8862 8.19384 15.8001C7.12573 17.1338 7.36005 19.145 8.18408 20.6056C8.30514 20.8223 8.62733 20.7618 8.66248 20.5158C8.75035 19.8929 8.92218 19.2817 9.20727 18.7232C9.68372 17.7938 10.3633 17.4364 11.1443 16.8428C11.6813 16.4366 11.943 15.472 11.3435 15.0014Z" fill="#F47473"></path><path d="M16.4449 29.4525C17.4029 32.7377 19.6467 35.3599 22.5175 36.4186C19.647 37.4739 17.403 40.088 16.4449 43.3697C15.484 40.0878 13.2349 37.4739 10.3679 36.4186C13.2353 35.3599 15.484 32.7379 16.4449 29.4525Z" fill="#F0B847" stroke="#333333" stroke-width="1.01257px"></path><path d="M36.0007 13.6422C36.2374 14.3272 36.5642 14.9499 36.9637 15.4837C37.4407 16.1211 38.0275 16.6379 38.6916 16.9751C38.0278 17.3111 37.441 17.8262 36.964 18.4621C36.5643 18.9948 36.2374 19.6165 36.0007 20.3006C35.7632 19.6164 35.4356 18.9946 35.0355 18.4619C34.558 17.8262 33.9711 17.3112 33.3078 16.9751C33.9714 16.6378 34.5584 16.1211 35.0358 15.4839C35.4358 14.9502 35.7633 14.3273 36.0007 13.6422Z" fill="#F0B847" stroke="#333333" stroke-width="0.868432px"></path></svg>