<svg xmlns:xlink="http://www.w3.org/1999/xlink" xmlns="http://www.w3.org/2000/svg" width="48" height="48" viewBox="0 0 48 48" fill="none"><path d="M9.14379 30.04L13.1237 31.9738L13.3836 32.1001L13.5851 31.8931L16.71 28.6836L16.0345 33.0747L15.9896 33.3664L16.255 33.4953L20.2206 35.4222L15.8235 36.2194L15.5429 36.2703L15.4995 36.5522L14.8201 40.969L12.7879 37.0563L12.6519 36.7944L12.3616 36.8471L7.99006 37.6397L11.1149 34.4302L11.3165 34.2232L11.1833 33.9668L9.14379 30.04Z" fill="#F0B847" stroke="#333333" stroke-width="0.8px"></path><path d="M23.8539 23.9604L27.6854 25.9179L27.9481 26.0522L28.154 25.8408L31.0595 22.8566L30.5507 27.0877L30.5173 27.3648L30.7658 27.4917L34.6356 29.4688L30.4877 30.0804L30.1854 30.125L30.1489 30.4284L29.6484 34.5911L27.5686 30.7755L27.4351 30.5305L27.159 30.5712L22.943 31.1929L25.8485 28.2087L26.0543 27.9973L25.9131 27.7383L23.8539 23.9604Z" fill="#F0B847" stroke="#333333" stroke-width="0.8px"></path><path d="M29.3743 9.26164L33.3542 11.1955L33.614 11.3218L33.8156 11.1147L36.9404 7.90524L36.2649 12.2964L36.2201 12.588L36.4855 12.717L40.451 14.6439L36.054 15.4411L35.7734 15.492L35.73 15.7739L35.0506 20.1906L33.0184 16.278L32.8824 16.0161L32.5921 16.0688L28.2205 16.8614L31.3454 13.6519L31.5469 13.4449L31.4138 13.1885L29.3743 9.26164Z" fill="#F0B847" stroke="#333333" stroke-width="0.8px"></path></svg>